<?xml version="1.0" encoding="utf-8" ?>
<!-- Generator: Assembly 1.0 - http://assemblyapp.co -->
<svg version="1.1" xmlns="http://www.w3.org/2000/svg" xmlns:xlink="http://www.w3.org/1999/xlink" width="300" height="300" viewBox="0 0 300 300">
	<rect x="0" y="0" width="300" height="300" fill="#ffffff" />
	<g id="widget" transform="matrix(1,0,0,1,150,150)">
		<path d="M31.4401,149.765 L31.4401,79.6412 L114.462,79.6412 L114.462,149.765 L31.4401,149.765 Z" fill="#519547" fill-opacity="1" />
		<path d="M-116.628,150 L-116.628,81.151 L-30.5169,81.151 L-30.5169,150 L-116.628,150 Z" fill="#519547" fill-opacity="1" />
		<path d="M-106.567,81.7202 L-106.567,-58.2078 L104.649,-58.2078 L104.649,81.7202 L-106.567,81.7202 Z" fill="#ffffff" fill-opacity="1" stroke-width="2.33682" stroke="#000000" stroke-linecap="square" stroke-linejoin="miter" />
		<path d="M-44.0141,149.779 L-44.0141,82.5347 L43.6909,82.5347 L43.6909,149.779 L-44.0141,149.779 L-44.0141,149.779 Z" fill="#8a8a8a" fill-opacity="1" />
		<path d="M34.1292,80.4585 L-34.7198,80.4585 L-34.7198,-5.65232 L34.1292,-5.65232 L34.1292,80.4585 Z" fill="#ffffff" fill-opacity="1" />
		<path d="M42.0967,81.627 L32.8024,81.627 L32.8024,-11.103 L42.0967,-11.103 L42.0967,81.627 Z" fill="#343838" fill-opacity="1" />
		<path d="M-34.7198,81.627 L-44.0141,81.627 L-44.0141,-11.103 L-34.7198,-11.103 L-34.7198,81.627 Z" fill="#343838" fill-opacity="1" />
		<path d="M-44.0141,-10.8257 L-44.0141,-19.4567 L42.0967,-19.4567 L42.0967,-10.8257 L-44.0141,-10.8257 Z" fill="#343838" fill-opacity="1" />
		<path d="M-13.0021,3.71895 L-13.0021,16.4611 L-25.7442,16.4611 L-25.7442,3.71895 L-13.0021,3.71895 M-13.0021,1.90098 L-25.7442,1.90098 C-26.7433,1.90098 -27.5622,2.71988 -27.5622,3.71895 L-27.5622,16.4611 C-27.5622,17.4602 -26.7433,18.2791 -25.7442,18.2791 L-13.0021,18.2791 C-12.003,18.2791 -11.1841,17.4602 -11.1841,16.4611 L-11.1841,3.71895 C-11.1841,2.71988 -12.003,1.90098 -13.0021,1.90098 L-13.0021,1.90098 Z" fill="#8a8a8a" fill-opacity="1" />
		<path d="M25.6041,3.94749 L25.6041,16.6897 L12.8619,16.6897 L12.8619,3.94749 L25.6041,3.94749 M25.6041,2.12952 L12.8619,2.12952 C11.8628,2.12952 11.0439,2.94842 11.0439,3.94749 L11.0439,16.6897 C11.0439,17.6887 11.8628,18.5076 12.8619,18.5076 L25.6041,18.5076 C26.6031,18.5076 27.422,17.6887 27.422,16.6897 L27.422,3.94749 C27.422,2.94842 26.6031,2.12952 25.6041,2.12952 L25.6041,2.12952 Z" fill="#8a8a8a" fill-opacity="1" />
		<path d="M25.6041,58.2411 L25.6041,70.9833 L12.8619,70.9833 L12.8619,58.2411 L25.6041,58.2411 M25.6041,56.4231 L12.8619,56.4231 C11.8628,56.4231 11.0439,57.242 11.0439,58.2411 L11.0439,70.9833 C11.0439,71.9823 11.8628,72.8012 12.8619,72.8012 L25.6041,72.8012 C26.6031,72.8012 27.422,71.9823 27.422,70.9833 L27.422,58.2411 C27.422,57.242 26.6031,56.4231 25.6041,56.4231 L25.6041,56.4231 Z" fill="#8a8a8a" fill-opacity="1" />
		<path d="M25.6041,30.9847 L25.6041,43.7268 L12.8619,43.7268 L12.8619,30.9847 L25.6041,30.9847 M25.6041,29.1667 L12.8619,29.1667 C11.8628,29.1667 11.0439,29.9856 11.0439,30.9847 L11.0439,43.7268 C11.0439,44.7259 11.8628,45.5448 12.8619,45.5448 L25.6041,45.5448 C26.6031,45.5448 27.422,44.7259 27.422,43.7268 L27.422,30.9847 C27.422,29.9856 26.6031,29.1667 25.6041,29.1667 L25.6041,29.1667 Z" fill="#8a8a8a" fill-opacity="1" />
		<path d="M-13.0021,31.032 L-13.0021,43.7742 L-25.7442,43.7742 L-25.7442,31.032 L-13.0021,31.032 M-13.0021,29.2141 L-25.7442,29.2141 C-26.7433,29.2141 -27.5622,30.033 -27.5622,31.032 L-27.5622,43.7742 C-27.5622,44.7733 -26.7433,45.5922 -25.7442,45.5922 L-13.0021,45.5922 C-12.003,45.5922 -11.1841,44.7733 -11.1841,43.7742 L-11.1841,31.032 C-11.1841,30.033 -12.003,29.2141 -13.0021,29.2141 L-13.0021,29.2141 Z" fill="#8a8a8a" fill-opacity="1" />
		<path d="M-13.0021,58.2411 L-13.0021,70.9833 L-25.7442,70.9833 L-25.7442,58.2411 L-13.0021,58.2411 M-13.0021,56.4231 L-25.7442,56.4231 C-26.7433,56.4231 -27.5622,57.242 -27.5622,58.2411 L-27.5622,70.9833 C-27.5622,71.9823 -26.7433,72.8012 -25.7442,72.8012 L-13.0021,72.8012 C-12.003,72.8012 -11.1841,71.9823 -11.1841,70.9833 L-11.1841,58.2411 C-11.1841,57.242 -12.003,56.4231 -13.0021,56.4231 L-13.0021,56.4231 Z" fill="#8a8a8a" fill-opacity="1" />
		<path d="M-0.295273,-13.6111 L-0.295273,79.1188" fill="#000000" fill-opacity="0" stroke-width="2.67939" stroke="#343838" stroke-linecap="square" stroke-linejoin="miter" />
		<path d="M9.17955,45.5922 L2.63208,45.5922 L2.63208,29.2141 L9.17955,29.2141 L9.17955,45.5922 L9.17955,45.5922 Z" fill="#ffd163" fill-opacity="1" />
		<path d="M-3.20418,45.4334 L-9.75165,45.4334 L-9.75165,29.0553 L-3.20418,29.0553 L-3.20418,45.4334 L-3.20418,45.4334 Z" fill="#ffd163" fill-opacity="1" />
		<path d="M-126.556,-56.6584 L0.291597,-149.388 L126.556,-56.6584 Z" fill="#a68131" fill-opacity="1" stroke-width="1.13782" stroke="#7f4f0b" stroke-linecap="square" stroke-linejoin="miter" />
		<path d="M89.2588,33.6507 L55.9246,33.6507 C52.9952,33.6507 50.6719,31.2769 50.6719,28.398 L50.6719,-4.88565 C50.6719,-7.81502 53.0457,-10.1383 55.9246,-10.1383 L89.2588,-10.1383 C92.1882,-10.1383 94.5114,-7.76451 94.5114,-4.88565 L94.5114,28.4485 C94.4609,31.2769 92.1376,33.6507 89.2588,33.6507 Z" fill="#0089f4" fill-opacity="1" />
		<path d="M62.7301,3.19768 Q62.1643,3.19768 61.8657,2.60049Q61.6929,2.83622 61.6929,3.05624Q61.6929,3.48057 62.0779,3.75559Q62.4629,4.03062 63.0601,4.03062Q64.1288,4.03062 64.6474,3.26055Q64.9774,2.77336 64.9774,1.73612L64.9774,-1.8942 Q64.9774,-2.33424 64.8831,-2.4914Q64.7574,-2.71142 64.3802,-2.71142Q64.2074,-2.71142 63.8695,-2.65642Q63.5316,-2.60141 63.3587,-2.60141Q63.013,-2.60141 62.7851,-2.88429Q62.5572,-3.16718 62.5572,-3.62293Q62.5572,-4.15727 62.8794,-4.47158Q63.2016,-4.78589 63.7202,-4.78589Q64.0659,-4.78589 64.616,-4.72303Q65.4332,-4.62874 66.2976,-4.62874Q66.8162,-4.62874 67.5627,-4.70731Q68.3092,-4.78589 68.5292,-4.78589Q69.0792,-4.78589 69.425,-4.47158Q69.7707,-4.15727 69.7707,-3.65436Q69.7707,-3.21432 69.5036,-2.90787Q69.2364,-2.60141 68.8278,-2.60141Q68.6235,-2.60141 68.4349,-2.66427Q68.1049,-2.71142 68.1206,-2.71142Q67.7277,-2.71142 67.7277,-1.8942L67.7277,2.23903 Q67.7277,3.26055 67.4684,3.87346Q67.2091,4.48637 66.5647,5.00499Q65.276,6.04223 63.4216,6.04223Q61.6614,6.04223 60.4985,5.13857Q59.3355,4.23492 59.3355,2.85194Q59.3355,1.73612 60.1056,0.94248Q60.8756,0.148837 61.9443,0.148837Q62.793,0.148837 63.3901,0.643882Q63.9873,1.13893 63.9873,1.84613Q63.9873,2.4119 63.618,2.80479Q63.2487,3.19768 62.7301,3.19768Z" fill="#ffffff" fill-opacity="1" />
		<path d="M79.5302,-3.70151 L80.5831,3.05624 L81.5732,-2.12994 Q81.6204,-2.30281 81.6204,-2.42854Q81.6204,-2.71142 81.3532,-2.71142Q81.3061,-2.71142 81.1489,-2.67999Q81.1175,-2.67999 81.0546,-2.67999Q80.9917,-2.66427 80.9603,-2.66427Q80.3631,-2.66427 80.3631,-3.60722Q80.3631,-4.78589 81.4161,-4.78589Q81.6832,-4.78589 82.1704,-4.72303Q82.9091,-4.62874 83.1605,-4.62874Q83.1919,-4.62874 84.4178,-4.77018Q84.6221,-4.78589 84.7635,-4.78589Q85.235,-4.78589 85.5414,-4.46372Q85.8479,-4.14155 85.8479,-3.65436Q85.8479,-3.23004 85.62,-2.91572Q85.3921,-2.60141 85.0778,-2.60141Q84.9049,-2.60141 84.7556,-2.65642Q84.6063,-2.71142 84.4963,-2.71142Q84.2292,-2.71142 84.1034,-2.31853Q84.1034,-2.30281 83.962,-1.70562L82.5319,4.64353 Q82.3747,5.28787 82.2961,5.42931Q82.1233,5.75934 81.6518,5.75934Q81.4789,5.75934 81.1489,5.72791Q80.9917,5.7122 80.5988,5.7122Q80.2688,5.7122 80.0174,5.72791L79.5145,5.75934 Q79.5145,5.75934 79.4359,5.75934Q79.0273,5.75934 78.8701,5.47646Q78.713,5.19358 78.5558,4.18777L77.7072,-1.29701 L76.8428,4.18777 Q76.6856,5.19358 76.5285,5.47646Q76.3713,5.75934 75.9627,5.75934Q75.8213,5.75934 75.3812,5.72791Q75.1612,5.7122 74.8155,5.7122Q74.6426,5.7122 74.289,5.73577Q73.9354,5.75934 73.7625,5.75934Q73.291,5.75934 73.1182,5.42931Q73.0396,5.30359 72.8824,4.64353L72.6938,3.84203 L71.4366,-1.70562 Q71.3737,-2.00421 71.3109,-2.31853Q71.1694,-2.71142 70.918,-2.71142Q70.7922,-2.71142 70.6508,-2.66427Q70.4622,-2.60141 70.3365,-2.60141Q70.0222,-2.60141 69.7864,-2.91572Q69.5507,-3.23004 69.5507,-3.67008Q69.5507,-4.15727 69.865,-4.47158Q70.1793,-4.78589 70.6508,-4.78589Q70.918,-4.78589 71.4444,-4.70731Q71.9709,-4.62874 72.2538,-4.62874Q72.5053,-4.62874 73.2439,-4.72303Q73.7311,-4.78589 73.9982,-4.78589Q75.0512,-4.78589 75.0512,-3.67008Q75.0512,-2.66427 74.454,-2.66427Q74.4226,-2.66427 74.3597,-2.67999Q74.2968,-2.67999 74.2497,-2.67999Q74.0925,-2.71142 74.0611,-2.71142Q73.7939,-2.71142 73.7939,-2.41282Q73.7939,-2.2871 73.8254,-2.12994L74.8312,3.05624 L75.8684,-3.70151 Q75.9784,-4.37729 76.1042,-4.58159Q76.2299,-4.78589 76.5442,-4.78589Q76.7328,-4.78589 77.1257,-4.7466Q77.5186,-4.70731 77.7072,-4.70731Q77.8957,-4.70731 78.2808,-4.7466Q78.6658,-4.78589 78.8544,-4.78589Q79.2473,-4.78589 79.3887,-4.42443Q79.4359,-4.29871 79.5302,-3.70151Z" fill="#ffffff" fill-opacity="1" />
		<path d="M61.6771,25.3437 Q61.0171,25.3437 60.5535,24.8723Q60.0899,24.4008 60.0899,23.7407Q60.0899,23.0807 60.5535,22.6171Q61.0171,22.1534 61.6771,22.1534Q62.3372,22.1534 62.8008,22.6171Q63.2644,23.0807 63.2644,23.7407Q63.2644,24.4008 62.8008,24.8723Q62.3372,25.3437 61.6771,25.3437Z" fill="#ffffff" fill-opacity="1" />
		<path d="M68.7492,25.3437 Q66.8005,25.3437 65.7396,24.2436Q64.6788,23.1435 64.6788,21.1476Q64.6788,19.1675 65.7318,18.0595Q66.7847,16.9515 68.6863,16.9515Q70.5565,16.9515 71.633,18.0516Q72.7096,19.1517 72.7096,21.0691Q72.7096,23.0807 71.6645,24.2122Q70.6194,25.3437 68.7492,25.3437Z M68.6863,18.8846 Q67.9949,18.8846 67.5941,19.4896Q67.1933,20.0947 67.1933,21.1476Q67.1933,22.2163 67.5941,22.8135Q67.9949,23.4107 68.7178,23.4107Q70.1793,23.4107 70.1793,21.1476Q70.1793,18.8846 68.6863,18.8846Z" fill="#ffffff" fill-opacity="1" />
		<path d="M76.7956,17.6587 L76.7956,18.9946 Q77.0157,18.1931 77.3143,17.8159Q78.0058,16.9515 79.2473,16.9515Q80.1117,16.9515 80.701,17.5094Q81.2903,18.0674 81.2903,18.8846Q81.2903,19.5289 80.9132,19.9454Q80.536,20.3618 79.9545,20.3618Q79.5145,20.3618 79.208,20.079Q78.9015,19.7961 78.9015,19.3875Q78.9015,19.1675 79.1059,18.7746L79.0116,18.7746 Q77.9586,18.7746 77.5971,19.8904Q77.3143,20.7862 77.3143,21.9491L77.3143,22.5463 Q77.3143,23.1121 77.4086,23.2693Q77.4714,23.3635 77.6286,23.3635Q77.77,23.3635 78.0215,23.3007Q78.2729,23.2378 78.3986,23.2378Q78.7444,23.2378 78.988,23.4814Q79.2316,23.725 79.2316,24.0708Q79.2316,24.5265 78.9251,24.833Q78.6187,25.1394 78.1786,25.1394Q77.9429,25.1394 77.2985,25.0608Q76.9057,25.0137 76.3085,25.0137Q75.7113,25.0137 75.2555,25.0608Q74.5012,25.1394 74.3283,25.1394Q73.3539,25.1394 73.3539,24.0865Q73.3539,23.2064 74.1083,23.2064Q74.234,23.2064 74.3911,23.2614Q74.5483,23.3164 74.6269,23.3164Q74.894,23.3164 74.894,22.4363L74.894,19.8904 Q74.894,18.9946 74.6269,18.9946Q74.564,18.9946 74.3833,19.0496Q74.2026,19.1046 74.1083,19.1046Q73.3539,19.1046 73.3539,18.2402Q73.3539,17.7688 73.6054,17.4702Q73.8568,17.1716 74.2497,17.1716Q74.4069,17.1716 74.6897,17.2344Q74.9726,17.2973 75.2241,17.2973Q75.4127,17.2973 75.7741,17.2344Q76.1356,17.1716 76.3085,17.1716Q76.7956,17.1716 76.7956,17.6587Z" fill="#ffffff" fill-opacity="1" />
		<path d="M85.675,16.9515 Q85.675,16.9515 86.2722,16.983Q86.2879,16.1815 86.8065,15.7336Q87.3252,15.2857 88.2367,15.2857Q88.9753,15.2857 89.4704,15.6629Q89.9654,16.04 89.9654,16.6215Q89.9654,17.0144 89.7061,17.2816Q89.4468,17.5487 89.0539,17.5487Q88.6139,17.5487 88.4095,17.2187L88.2524,16.9673 Q88.1895,16.8572 88.0481,16.8572Q87.7181,16.8572 87.7181,17.313Q87.7181,17.423 87.7338,17.4702Q89.2425,18.0045 89.2425,19.6075Q89.2425,20.8176 88.3074,21.5562Q87.3723,22.2949 85.8479,22.2949Q85.0307,22.2949 84.1663,21.9334L84.0877,21.902 Q83.852,22.0906 83.852,22.3106Q83.852,22.8449 84.6063,22.9707Q84.8578,23.0178 85.7536,23.0178L85.9265,23.0178 L86.9323,23.0021 Q88.441,22.9864 89.2582,23.5836Q90.0754,24.1808 90.0754,25.2809Q90.0754,26.6796 88.8496,27.4889Q87.6238,28.2983 85.5179,28.2983Q83.632,28.2983 82.4926,27.5989Q81.3532,26.8996 81.3532,25.7366Q81.3532,24.4794 82.9405,23.9922Q81.6832,23.7407 81.6832,22.562Q81.6832,21.9491 81.9583,21.5955Q82.2333,21.2419 82.9405,20.9276Q82.3747,20.299 82.3747,19.5446Q82.3747,18.4445 83.3255,17.698Q84.2763,16.9515 85.675,16.9515Z M85.8007,18.6017 Q85.3607,18.6017 85.07,18.8924Q84.7792,19.1832 84.7792,19.6232Q84.7792,20.0633 85.07,20.3618Q85.3607,20.6604 85.8007,20.6604Q86.2408,20.6604 86.5315,20.3618Q86.8223,20.0633 86.8223,19.6389Q86.8223,19.1989 86.5315,18.9003Q86.2408,18.6017 85.8007,18.6017Z M85.4864,24.8565 Q85.1093,24.8565 84.5435,24.7937Q83.8363,25.0766 83.8363,25.5166Q83.8363,26.3495 85.6907,26.3495Q87.5609,26.3495 87.5609,25.5166Q87.5609,24.8408 86.3351,24.8408Q86.2879,24.8408 85.9108,24.8565Q85.9108,24.8565 85.4864,24.8565Z" fill="#ffffff" fill-opacity="1" />
		<path d="M-50.8326,82.8886 C-48.9587,80.5288 -47.7788,77.6139 -47.7788,74.2824 C-47.7788,66.7174 -53.817,60.6098 -61.382,60.6098 C-62.3537,60.6098 -63.2559,60.6792 -64.1582,60.8874 C-67.0732,54.1552 -73.8748,49.3663 -81.7869,49.3663 C-91.9199,49.3663 -100.179,57.2784 -100.942,67.1338 C-102.122,66.7174 -103.372,66.4398 -104.76,66.4398 C-111.353,66.4398 -116.628,71.7145 -116.628,78.3079 C-116.628,79.8348 -116.281,81.4311 -115.795,82.8192 L-50.8326,82.8886 L-50.8326,82.8886 Z" fill="#1c5214" fill-opacity="1" />
		<path d="M49.246,82.8886 C47.3721,80.5288 46.1922,77.6139 46.1922,74.2824 C46.1922,66.7174 52.2304,60.6098 59.7954,60.6098 C60.7671,60.6098 61.6693,60.6792 62.5716,60.8874 C65.4866,54.1552 72.2882,49.3663 80.2003,49.3663 C90.3333,49.3663 98.5924,57.2784 99.3558,67.1338 C100.536,66.7174 101.785,66.4398 103.173,66.4398 C109.766,66.4398 115.041,71.7145 115.041,78.3079 C115.041,79.8348 114.694,81.4311 114.208,82.8192 L49.246,82.8886 L49.246,82.8886 Z" fill="#1c5214" fill-opacity="1" />
		<path d="M-72.6663,-46.8194 L-62.497,-46.8194 L-62.497,4.02675 L-72.6663,4.02675 Z" fill="#e9dcb7" fill-opacity="1" />
		<path d="M-62.6706,3.37869 C-62.7831,3.37869 -62.8649,3.4503 -62.8854,3.57306 C-62.9774,4.24823 -63.5606,4.79042 -64.2766,4.79042 C-64.9927,4.79042 -65.5758,4.26869 -65.6679,3.57306 C-65.6781,3.46053 -65.7702,3.37869 -65.8827,3.37869 L-65.9339,3.37869 C-66.0464,3.37869 -66.1283,3.4503 -66.1487,3.57306 C-66.2203,4.24823 -66.8137,4.79042 -67.5298,4.79042 C-68.2458,4.79042 -68.829,4.26869 -68.921,3.57306 C-68.9313,3.46053 -69.0233,3.37869 -69.1359,3.37869 L-69.1768,3.37869 C-69.2893,3.37869 -69.3711,3.4503 -69.3916,3.57306 C-69.4632,4.24823 -70.0668,4.79042 -70.7726,4.79042 C-71.4785,4.79042 -72.0718,4.26869 -72.1639,3.57306 C-72.1741,3.46053 -72.2662,3.37869 -72.3787,3.37869 L-72.3787,3.37869 C-72.5015,3.37869 -72.6038,3.49122 -72.5936,3.62421 C-72.4708,4.53467 -71.7036,5.2303 -70.7624,5.2303 C-70.0565,5.2303 -69.4427,4.83134 -69.1359,4.25846 C-68.8187,4.83134 -68.2049,5.2303 -67.5093,5.2303 C-66.8239,5.2303 -66.1896,4.83134 -65.8827,4.25846 C-65.5656,4.83134 -64.9518,5.2303 -64.2562,5.2303 C-63.3253,5.2303 -62.5478,4.52444 -62.425,3.62421 C-62.4353,3.49122 -62.5376,3.37869 -62.6706,3.37869 L-62.6706,3.37869 Z" fill="#e9dcb7" fill-opacity="1" />
		<path d="M-82.2033,34.5488 L-82.2033,34.5488 C-86.7288,34.5488 -90.3924,30.8852 -90.3924,26.3597 L-90.3924,26.3597 C-90.3924,21.8342 -86.7288,18.1707 -82.2033,18.1707 L-82.2033,18.1707 C-77.6778,18.1707 -74.0142,21.8342 -74.0142,26.3597 L-74.0142,26.3597 C-74.0142,30.8852 -77.6778,34.5488 -82.2033,34.5488 Z" fill="#e9dcb7" fill-opacity="1" />
		<path d="M-77.5849,14.7568 C-77.5635,14.5857 -77.5422,14.3933 -77.5422,14.2009 C-77.5422,11.6137 -79.6375,9.53974 -82.1819,9.53974 C-84.7691,9.53974 -86.8431,11.6351 -86.8431,14.2009 C-86.8431,14.3719 -86.8217,14.5644 -86.8003,14.7354 C-88.9384,16.2107 -90.3496,18.6909 -90.3924,21.4919 L-90.3924,30.9211 L-79.0602,20.8077 L-74.0142,30.5148 L-74.0142,21.5347 C-74.0142,18.7337 -75.4468,16.2535 -77.5849,14.7568 Z" fill="#000000" fill-opacity="1" />
		<path d="M-66.9252,18.1707 L-64.3611,18.1707 L-64.3611,30.9913 L-66.9252,30.9913 Z" fill="#8a8a8a" fill-opacity="1" />
		<path d="M-63.4662,26.9937 L-63.4662,26.9937 C-64.8544,25.6055 -67.1214,25.6055 -68.5096,26.9937 L-76.0619,34.546 C-77.4501,35.9342 -77.4501,38.2012 -76.0619,39.5894 L-76.0619,39.5894 C-74.6737,40.9776 -72.4067,40.9776 -71.0185,39.5894 L-63.4662,32.037 C-62.078,30.6488 -62.078,28.3819 -63.4662,26.9937 Z" fill="#09476b" fill-opacity="1" />
		<path d="M-62.6098,11.2659 L-62.6098,11.2659 L-66.9252,11.2659 L-66.9252,9.53974 L-62.6098,9.53974 L-62.6098,9.53974 C-60.2276,9.53974 -58.2943,11.4731 -58.2943,13.8552 C-58.2943,16.2373 -60.2276,18.1707 -62.6098,18.1707 L-62.6098,18.1707 L-66.9252,18.1707 L-66.9252,16.4445 L-62.6098,16.4445 L-62.6098,16.4445 C-61.177,16.4445 -60.0205,15.2879 -60.0205,13.8552 C-60.0205,12.4225 -61.177,11.2659 -62.6098,11.2659 Z" fill="#8a8a8a" fill-opacity="1" />
		<path d="M-63.9161,7.70422 L-67.3702,7.70422 C-68.8043,7.70422 -69.9586,8.8585 -69.9586,10.2926 L-69.9586,10.2926 C-69.9586,11.7267 -68.8043,12.881 -67.3702,12.881 L-63.9161,12.881 C-62.482,12.881 -61.3277,11.7267 -61.3277,10.2926 L-61.3277,10.2926 C-61.3277,8.86725 -62.482,7.70422 -63.9161,7.70422 Z" fill="#ffffff" fill-opacity="1" stroke-width="0.232458" stroke="#8a8a8a" stroke-linecap="square" stroke-linejoin="miter" />
		<path d="M-91.2389,105.45 L-96.3353,105.45 L-96.3353,54.6038 L-91.2389,54.6038 L-91.2389,105.45 Z" fill="#000000" fill-opacity="1" />
		<path d="M-68.0713,105.801 L-73.1677,105.801 L-73.1677,54.9547 L-68.0713,54.9547 L-68.0713,105.801 Z" fill="#000000" fill-opacity="1" />
		<path d="M-96.3353,62.4753 L-96.3353,59.9769 L-71.4089,59.9769 L-71.4089,62.4753 L-96.3353,62.4753 Z" fill="#000000" fill-opacity="1" />
		<path d="M-74.979,70.2144 L-89.4276,70.2144 L-89.4276,52.1431 L-74.979,52.1431 L-74.979,70.2144 Z" fill="#7f4f0b" fill-opacity="1" />
		<path d="M-73.1677,52.62 L-91.2389,52.62 L-91.2389,43.5844 C-91.2389,38.591 -87.1967,34.5488 -82.2033,34.5488 L-82.2033,34.5488 C-77.2099,34.5488 -73.1677,38.591 -73.1677,43.5844 L-73.1677,52.62 Z" fill="#09476b" fill-opacity="1" />
		<path d="M-92.9977,72.7128 L-92.9977,70.2144 L-68.0713,70.2144 L-68.0713,72.7128 L-92.9977,72.7128 Z" fill="#000000" fill-opacity="1" />
		<path d="M-94.6665,89.6844 L-94.6665,87.186 L-69.7401,87.186 L-69.7401,89.6844 L-94.6665,89.6844 Z" fill="#000000" fill-opacity="1" />
		<path d="M-91.2389,81.627 L-91.2389,79.1286 L-73.1677,79.1286 L-73.1677,81.627 L-91.2389,81.627 Z" fill="#000000" fill-opacity="1" />
		<path d="M-92.9977,99.1226 L-92.9977,96.6242 L-68.0713,96.6242 L-68.0713,99.1226 L-92.9977,99.1226 Z" fill="#000000" fill-opacity="1" />
		<path d="M90.5671,79.4413 L100.197,79.4413 L100.197,89.0716 L90.5671,89.0716 Z" fill="#09476b" fill-opacity="1" />
		<path d="M106.945,82.5138 L90.5671,82.5138 L90.5671,74.3247 C90.5671,69.7992 94.2306,66.1357 98.7561,66.1357 L98.7561,66.1357 C103.282,66.1357 106.945,69.7992 106.945,74.3247 L106.945,82.5138 Z" fill="#3a8686" fill-opacity="1" />
		<path d="M90.5671,60.1774 L90.5671,60.1774 C90.5671,55.6519 94.2306,51.9884 98.7561,51.9884 L98.7561,51.9884 C103.282,51.9884 106.945,55.6519 106.945,60.1774 L106.945,60.1774 C106.945,64.703 103.282,68.3665 98.7561,68.3665 L98.7561,68.3665 C94.2306,68.3665 90.5671,64.703 90.5671,60.1774 Z" fill="#e9dcb7" fill-opacity="1" />
		<path d="M102.015,50.3818 L97.5605,50.3818 L97.5605,49.3663 C96.8235,49.3663 96.1684,49.7758 95.8408,50.3818 L95.7262,50.3818 C95.3986,49.8085 94.7435,49.3991 94.0065,49.3991 L94.0065,50.6274 C92.0084,51.2334 90.5671,53.0678 90.5671,55.2788 L90.5671,58.9966 L92.991,58.9966 C94.3341,58.9966 95.4478,57.8829 95.4478,56.5399 C95.4478,57.8829 96.5615,58.9966 97.9045,58.9966 L106.945,58.9966 L106.945,55.2461 C106.912,52.5764 104.718,50.3818 102.015,50.3818 Z" fill="#7f4f0b" fill-opacity="1" />
		<path d="M98.6631,85.7927 L98.6631,85.7927 C98.6631,87.5978 100.137,89.0716 101.942,89.0716 L111.762,89.0716 C113.567,89.0716 115.041,87.5978 115.041,85.7927 L115.041,85.7927 C115.041,83.9876 113.567,82.5138 111.762,82.5138 L101.942,82.5138 C100.137,82.5138 98.6631,83.9876 98.6631,85.7927 Z" fill="#09476b" fill-opacity="1" />
		<path d="M79.3603,76.8166 C81.2458,76.0342 82.094,73.9049 81.3197,72.0388 C80.5373,70.1533 78.4081,69.3051 76.5614,70.0714 C76.2115,70.2166 75.6848,70.5946 75.6848,70.5946 L64.4551,79.0595 C64.4551,79.0595 73.3235,77.8632 78.3869,77.1065 C78.7027,77.0438 79.0298,76.9537 79.3603,76.8166 Z" fill="#bebebe" fill-opacity="1" stroke-width="0.187865" stroke="#000000" stroke-linecap="square" stroke-linejoin="miter" />
		<path d="M87.4647,77.2123 L86.5474,78.9961 L77.6288,74.4099 L78.546,72.6262 Z" fill="#000000" fill-opacity="1" />
		<path d="M78.3439,74.355 L77.7312,72.4452 L87.2806,69.3816 L87.8933,71.2915 Z" fill="#000000" fill-opacity="1" />
		<path d="M76.1358,76.6235 C77.929,77.5993 80.1185,76.9219 81.0842,75.1473 C82.06,73.3542 81.3827,71.1646 79.6265,70.2089 C79.2938,70.0279 78.6688,69.8555 78.6688,69.8555 L65.0286,66.434 C65.0286,66.434 71.5297,72.5835 75.2988,76.0482 C75.5459,76.2545 75.8216,76.4525 76.1358,76.6235 Z" fill="#bebebe" fill-opacity="1" stroke-width="0.108764" stroke="#000000" stroke-linecap="square" stroke-linejoin="miter" />
		<path d="M77.3976,73.2155 L77.3976,73.2155 C77.5263,72.9091 77.8786,72.7652 78.185,72.894 L78.185,72.894 C78.4914,73.0227 78.6353,73.375 78.5065,73.6814 L78.5065,73.6814 C78.3778,73.9879 78.0255,74.1317 77.7191,74.0029 L77.7191,74.0029 C77.4127,73.8742 77.2688,73.5219 77.3976,73.2155 Z" fill="#4d4d4d" fill-opacity="1" />
		<path d="M87.3343,79.1082 L87.3343,79.1082 C86.7991,79.2572 86.2453,78.9447 86.0962,78.4096 L86.0962,78.4096 C85.9471,77.8745 86.2596,77.3206 86.7947,77.1715 L86.7947,77.1715 C87.3299,77.0224 87.8838,77.335 88.0328,77.8701 L88.0328,77.8701 C88.1819,78.4052 87.8694,78.9591 87.3343,79.1082 Z" fill="#000000" fill-opacity="1" />
		<path d="M87.8307,71.3111 L87.8307,71.3111 C87.2955,71.4602 86.7416,71.1477 86.5926,70.6125 L86.5926,70.6125 C86.4435,70.0774 86.756,69.5235 87.2911,69.3744 L87.2911,69.3744 C87.8263,69.2254 88.3801,69.5379 88.5292,70.073 L88.5292,70.073 C88.6783,70.6081 88.3658,71.162 87.8307,71.3111 Z" fill="#000000" fill-opacity="1" />
		<path d="M81.9495,73.9045 L81.9495,73.9045 C82.473,75.5292 84.2271,76.4283 85.8517,75.9047 L94.6905,73.0566 C96.3151,72.5331 97.2142,70.779 96.6907,69.1544 L96.6907,69.1544 C96.1672,67.5297 94.4132,66.6306 92.7885,67.1541 L83.9497,70.0023 C82.3251,70.5258 81.426,72.2798 81.9495,73.9045 Z" fill="#3a8686" fill-opacity="1" />
	</g>
</svg>